<mxfile host="Electron" modified="2024-09-04T04:27:17.536Z" agent="Mozilla/5.0 (Windows NT 10.0; Win64; x64) AppleWebKit/537.36 (KHTML, like Gecko) draw.io/23.0.2 Chrome/120.0.6099.109 Electron/28.1.0 Safari/537.36" etag="9Dq4xo-pbaEgRctTE2zH" version="23.0.2" type="device">
  <diagram name="Page-1" id="2YBvvXClWsGukQMizWep">
    <mxGraphModel dx="2500" dy="1242" grid="0" gridSize="10" guides="1" tooltips="1" connect="1" arrows="1" fold="1" page="0" pageScale="1" pageWidth="850" pageHeight="1100" math="0" shadow="0">
      <root>
        <mxCell id="0" />
        <mxCell id="1" parent="0" />
        <mxCell id="DzmuH9avELXMIIvXB95H-1" value="" style="shape=umlLifeline;perimeter=lifelinePerimeter;whiteSpace=wrap;html=1;container=1;dropTarget=0;collapsible=0;recursiveResize=0;outlineConnect=0;portConstraint=eastwest;newEdgeStyle={&quot;curved&quot;:0,&quot;rounded&quot;:0};participant=umlActor;" parent="1" vertex="1">
          <mxGeometry x="25" y="37" width="20" height="599" as="geometry" />
        </mxCell>
        <mxCell id="JpaTvgJXBN56mBUlhyUK-1" value="" style="html=1;points=[[0,0,0,0,5],[0,1,0,0,-5],[1,0,0,0,5],[1,1,0,0,-5]];perimeter=orthogonalPerimeter;outlineConnect=0;targetShapes=umlLifeline;portConstraint=eastwest;newEdgeStyle={&quot;curved&quot;:0,&quot;rounded&quot;:0};" parent="DzmuH9avELXMIIvXB95H-1" vertex="1">
          <mxGeometry x="5" y="58" width="10" height="160" as="geometry" />
        </mxCell>
        <mxCell id="Zfnv8Gw2VdRxA6La8OuP-14" value="" style="html=1;points=[[0,0,0,0,5],[0,1,0,0,-5],[1,0,0,0,5],[1,1,0,0,-5]];perimeter=orthogonalPerimeter;outlineConnect=0;targetShapes=umlLifeline;portConstraint=eastwest;newEdgeStyle={&quot;curved&quot;:0,&quot;rounded&quot;:0};" vertex="1" parent="DzmuH9avELXMIIvXB95H-1">
          <mxGeometry x="5" y="242" width="10" height="129" as="geometry" />
        </mxCell>
        <mxCell id="Zfnv8Gw2VdRxA6La8OuP-26" value="" style="html=1;points=[[0,0,0,0,5],[0,1,0,0,-5],[1,0,0,0,5],[1,1,0,0,-5]];perimeter=orthogonalPerimeter;outlineConnect=0;targetShapes=umlLifeline;portConstraint=eastwest;newEdgeStyle={&quot;curved&quot;:0,&quot;rounded&quot;:0};" vertex="1" parent="DzmuH9avELXMIIvXB95H-1">
          <mxGeometry x="5" y="392" width="10" height="136" as="geometry" />
        </mxCell>
        <mxCell id="hzaYRkzp_LopEzToYhyO-2" value="Admin" style="shape=umlLifeline;perimeter=lifelinePerimeter;whiteSpace=wrap;html=1;container=1;dropTarget=0;collapsible=0;recursiveResize=0;outlineConnect=0;portConstraint=eastwest;newEdgeStyle={&quot;curved&quot;:0,&quot;rounded&quot;:0};" parent="1" vertex="1">
          <mxGeometry x="143" y="35" width="100" height="861" as="geometry" />
        </mxCell>
        <mxCell id="JpaTvgJXBN56mBUlhyUK-2" value="" style="html=1;points=[[0,0,0,0,5],[0,1,0,0,-5],[1,0,0,0,5],[1,1,0,0,-5]];perimeter=orthogonalPerimeter;outlineConnect=0;targetShapes=umlLifeline;portConstraint=eastwest;newEdgeStyle={&quot;curved&quot;:0,&quot;rounded&quot;:0};" parent="hzaYRkzp_LopEzToYhyO-2" vertex="1">
          <mxGeometry x="45" y="57" width="10" height="482" as="geometry" />
        </mxCell>
        <mxCell id="DzmuH9avELXMIIvXB95H-17" value="" style="html=1;points=[[0,0,0,0,5],[0,1,0,0,-5],[1,0,0,0,5],[1,1,0,0,-5]];perimeter=orthogonalPerimeter;outlineConnect=0;targetShapes=umlLifeline;portConstraint=eastwest;newEdgeStyle={&quot;curved&quot;:0,&quot;rounded&quot;:0};" parent="hzaYRkzp_LopEzToYhyO-2" vertex="1">
          <mxGeometry x="45" y="701" width="10" height="37" as="geometry" />
        </mxCell>
        <mxCell id="Zfnv8Gw2VdRxA6La8OuP-31" value="Yes" style="html=1;verticalAlign=bottom;endArrow=block;curved=0;rounded=0;exitX=1;exitY=0;exitDx=0;exitDy=5;exitPerimeter=0;" edge="1" parent="hzaYRkzp_LopEzToYhyO-2">
          <mxGeometry width="80" relative="1" as="geometry">
            <mxPoint x="-102" y="462.21000000000004" as="sourcePoint" />
            <mxPoint x="45" y="462.21000000000004" as="targetPoint" />
          </mxGeometry>
        </mxCell>
        <mxCell id="Zfnv8Gw2VdRxA6La8OuP-33" value="opt" style="shape=umlFrame;whiteSpace=wrap;html=1;pointerEvents=0;" vertex="1" parent="hzaYRkzp_LopEzToYhyO-2">
          <mxGeometry x="-177" y="441" width="454" height="106" as="geometry" />
        </mxCell>
        <mxCell id="Zfnv8Gw2VdRxA6La8OuP-34" value="Quiz Deleted" style="html=1;verticalAlign=bottom;endArrow=open;dashed=1;endSize=8;curved=0;rounded=0;exitX=0;exitY=1;exitDx=0;exitDy=-5;exitPerimeter=0;entryX=1;entryY=1;entryDx=0;entryDy=-5;entryPerimeter=0;" edge="1" parent="hzaYRkzp_LopEzToYhyO-2">
          <mxGeometry relative="1" as="geometry">
            <mxPoint x="45" y="482" as="sourcePoint" />
            <mxPoint x="-103" y="481" as="targetPoint" />
          </mxGeometry>
        </mxCell>
        <mxCell id="Zfnv8Gw2VdRxA6La8OuP-36" value="No" style="html=1;verticalAlign=bottom;endArrow=block;curved=0;rounded=0;exitX=1;exitY=0;exitDx=0;exitDy=5;exitPerimeter=0;" edge="1" parent="hzaYRkzp_LopEzToYhyO-2">
          <mxGeometry width="80" relative="1" as="geometry">
            <mxPoint x="-102" y="500" as="sourcePoint" />
            <mxPoint x="45" y="500" as="targetPoint" />
          </mxGeometry>
        </mxCell>
        <mxCell id="Zfnv8Gw2VdRxA6La8OuP-37" value="Delete Quiz" style="html=1;verticalAlign=bottom;endArrow=block;curved=0;rounded=0;exitX=1;exitY=0;exitDx=0;exitDy=5;exitPerimeter=0;" edge="1" parent="hzaYRkzp_LopEzToYhyO-2">
          <mxGeometry x="-0.0023" width="80" relative="1" as="geometry">
            <mxPoint x="56" y="465" as="sourcePoint" />
            <mxPoint x="203" y="465" as="targetPoint" />
            <mxPoint as="offset" />
          </mxGeometry>
        </mxCell>
        <mxCell id="Zfnv8Gw2VdRxA6La8OuP-38" value="Deleted" style="html=1;verticalAlign=bottom;endArrow=open;dashed=1;endSize=8;curved=0;rounded=0;exitX=0;exitY=1;exitDx=0;exitDy=-5;exitPerimeter=0;entryX=1;entryY=1;entryDx=0;entryDy=-5;entryPerimeter=0;" edge="1" parent="hzaYRkzp_LopEzToYhyO-2">
          <mxGeometry relative="1" as="geometry">
            <mxPoint x="203" y="484" as="sourcePoint" />
            <mxPoint x="55" y="483" as="targetPoint" />
          </mxGeometry>
        </mxCell>
        <mxCell id="hzaYRkzp_LopEzToYhyO-3" value="DB" style="shape=umlLifeline;perimeter=lifelinePerimeter;whiteSpace=wrap;html=1;container=1;dropTarget=0;collapsible=0;recursiveResize=0;outlineConnect=0;portConstraint=eastwest;newEdgeStyle={&quot;curved&quot;:0,&quot;rounded&quot;:0};" parent="1" vertex="1">
          <mxGeometry x="301" y="32" width="100" height="604" as="geometry" />
        </mxCell>
        <mxCell id="Zfnv8Gw2VdRxA6La8OuP-24" value="" style="html=1;points=[[0,0,0,0,5],[0,1,0,0,-5],[1,0,0,0,5],[1,1,0,0,-5]];perimeter=orthogonalPerimeter;outlineConnect=0;targetShapes=umlLifeline;portConstraint=eastwest;newEdgeStyle={&quot;curved&quot;:0,&quot;rounded&quot;:0};" vertex="1" parent="hzaYRkzp_LopEzToYhyO-3">
          <mxGeometry x="45" y="334" width="10" height="37" as="geometry" />
        </mxCell>
        <mxCell id="Zfnv8Gw2VdRxA6La8OuP-30" value="" style="html=1;points=[[0,0,0,0,5],[0,1,0,0,-5],[1,0,0,0,5],[1,1,0,0,-5]];perimeter=orthogonalPerimeter;outlineConnect=0;targetShapes=umlLifeline;portConstraint=eastwest;newEdgeStyle={&quot;curved&quot;:0,&quot;rounded&quot;:0};" vertex="1" parent="hzaYRkzp_LopEzToYhyO-3">
          <mxGeometry x="45" y="464" width="10" height="30" as="geometry" />
        </mxCell>
        <mxCell id="JpaTvgJXBN56mBUlhyUK-3" value="View Created Quizzies" style="html=1;verticalAlign=bottom;endArrow=block;curved=0;rounded=0;" parent="1" edge="1">
          <mxGeometry width="80" relative="1" as="geometry">
            <mxPoint x="40" y="101" as="sourcePoint" />
            <mxPoint x="187" y="101" as="targetPoint" />
          </mxGeometry>
        </mxCell>
        <mxCell id="ceTiRcbH1Ae4_WQJ_M4x-2" value="View Given Quizzies" style="html=1;verticalAlign=bottom;endArrow=block;curved=0;rounded=0;entryX=0;entryY=0;entryDx=0;entryDy=5;entryPerimeter=0;exitX=1;exitY=0;exitDx=0;exitDy=5;exitPerimeter=0;" parent="1" edge="1">
          <mxGeometry x="0.0039" width="80" relative="1" as="geometry">
            <mxPoint x="41" y="756" as="sourcePoint" />
            <mxPoint x="189" y="756" as="targetPoint" />
            <mxPoint as="offset" />
          </mxGeometry>
        </mxCell>
        <mxCell id="ceTiRcbH1Ae4_WQJ_M4x-22" value="" style="shape=umlDestroy;whiteSpace=wrap;html=1;strokeWidth=3;targetShapes=umlLifeline;" parent="1" vertex="1">
          <mxGeometry x="20" y="882" width="30" height="30" as="geometry" />
        </mxCell>
        <mxCell id="ceTiRcbH1Ae4_WQJ_M4x-23" value="" style="shape=umlDestroy;whiteSpace=wrap;html=1;strokeWidth=3;targetShapes=umlLifeline;" parent="1" vertex="1">
          <mxGeometry x="178" y="882" width="30" height="30" as="geometry" />
        </mxCell>
        <mxCell id="ceTiRcbH1Ae4_WQJ_M4x-25" value="" style="shape=umlDestroy;whiteSpace=wrap;html=1;strokeWidth=3;targetShapes=umlLifeline;" parent="1" vertex="1">
          <mxGeometry x="336" y="628" width="30" height="30" as="geometry" />
        </mxCell>
        <mxCell id="DzmuH9avELXMIIvXB95H-4" value="Teacher" style="text;html=1;align=center;verticalAlign=middle;resizable=0;points=[];autosize=1;strokeColor=none;fillColor=none;" parent="1" vertex="1">
          <mxGeometry x="-35" y="44" width="61" height="26" as="geometry" />
        </mxCell>
        <mxCell id="DzmuH9avELXMIIvXB95H-7" value="Details" style="html=1;verticalAlign=bottom;endArrow=block;curved=0;rounded=0;exitX=1;exitY=0;exitDx=0;exitDy=5;exitPerimeter=0;" parent="1" edge="1">
          <mxGeometry width="80" relative="1" as="geometry">
            <mxPoint x="42" y="122" as="sourcePoint" />
            <mxPoint x="189" y="122" as="targetPoint" />
          </mxGeometry>
        </mxCell>
        <mxCell id="DzmuH9avELXMIIvXB95H-10" value="Export File" style="html=1;verticalAlign=bottom;endArrow=block;curved=0;rounded=0;exitX=1;exitY=0;exitDx=0;exitDy=5;exitPerimeter=0;" parent="1" edge="1">
          <mxGeometry width="80" relative="1" as="geometry">
            <mxPoint x="40" y="185" as="sourcePoint" />
            <mxPoint x="187" y="185" as="targetPoint" />
          </mxGeometry>
        </mxCell>
        <mxCell id="DzmuH9avELXMIIvXB95H-12" value="" style="shape=umlLifeline;perimeter=lifelinePerimeter;whiteSpace=wrap;html=1;container=1;dropTarget=0;collapsible=0;recursiveResize=0;outlineConnect=0;portConstraint=eastwest;newEdgeStyle={&quot;curved&quot;:0,&quot;rounded&quot;:0};participant=umlActor;" parent="1" vertex="1">
          <mxGeometry x="25" y="693" width="20" height="202" as="geometry" />
        </mxCell>
        <mxCell id="ceTiRcbH1Ae4_WQJ_M4x-9" value="" style="html=1;points=[[0,0,0,0,5],[0,1,0,0,-5],[1,0,0,0,5],[1,1,0,0,-5]];perimeter=orthogonalPerimeter;outlineConnect=0;targetShapes=umlLifeline;portConstraint=eastwest;newEdgeStyle={&quot;curved&quot;:0,&quot;rounded&quot;:0};" parent="DzmuH9avELXMIIvXB95H-12" vertex="1">
          <mxGeometry x="5" y="51" width="10" height="26" as="geometry" />
        </mxCell>
        <mxCell id="DzmuH9avELXMIIvXB95H-13" value="" style="shape=umlDestroy;whiteSpace=wrap;html=1;strokeWidth=3;targetShapes=umlLifeline;" parent="1" vertex="1">
          <mxGeometry x="20" y="628" width="30" height="30" as="geometry" />
        </mxCell>
        <mxCell id="Zfnv8Gw2VdRxA6La8OuP-3" value="Displays Quiz Details" style="html=1;verticalAlign=bottom;endArrow=open;dashed=1;endSize=8;curved=0;rounded=0;exitX=0;exitY=1;exitDx=0;exitDy=-5;exitPerimeter=0;entryX=1;entryY=1;entryDx=0;entryDy=-5;entryPerimeter=0;" edge="1" parent="1">
          <mxGeometry relative="1" as="geometry">
            <mxPoint x="187" y="144" as="sourcePoint" />
            <mxPoint x="39" y="143" as="targetPoint" />
            <mxPoint as="offset" />
          </mxGeometry>
        </mxCell>
        <mxCell id="Zfnv8Gw2VdRxA6La8OuP-4" value="Displays Student Details" style="html=1;verticalAlign=bottom;endArrow=open;dashed=1;endSize=8;curved=0;rounded=0;exitX=0;exitY=1;exitDx=0;exitDy=-5;exitPerimeter=0;entryX=1;entryY=1;entryDx=0;entryDy=-5;entryPerimeter=0;" edge="1" parent="1">
          <mxGeometry relative="1" as="geometry">
            <mxPoint x="187" y="166" as="sourcePoint" />
            <mxPoint x="39" y="165" as="targetPoint" />
          </mxGeometry>
        </mxCell>
        <mxCell id="Zfnv8Gw2VdRxA6La8OuP-5" value="Download CSV file" style="html=1;verticalAlign=bottom;endArrow=block;curved=0;rounded=0;exitX=1;exitY=0;exitDx=0;exitDy=5;exitPerimeter=0;" edge="1" parent="1">
          <mxGeometry width="80" relative="1" as="geometry">
            <mxPoint x="40" y="210.21" as="sourcePoint" />
            <mxPoint x="187" y="210.21" as="targetPoint" />
          </mxGeometry>
        </mxCell>
        <mxCell id="Zfnv8Gw2VdRxA6La8OuP-6" value="Download PDF file" style="html=1;verticalAlign=bottom;endArrow=block;curved=0;rounded=0;exitX=1;exitY=0;exitDx=0;exitDy=5;exitPerimeter=0;" edge="1" parent="1">
          <mxGeometry width="80" relative="1" as="geometry">
            <mxPoint x="40" y="229.21" as="sourcePoint" />
            <mxPoint x="187" y="229.21" as="targetPoint" />
          </mxGeometry>
        </mxCell>
        <mxCell id="Zfnv8Gw2VdRxA6La8OuP-7" value="opt" style="shape=umlFrame;whiteSpace=wrap;html=1;pointerEvents=0;" vertex="1" parent="1">
          <mxGeometry x="-35" y="192" width="286" height="71" as="geometry" />
        </mxCell>
        <mxCell id="Zfnv8Gw2VdRxA6La8OuP-13" value="File Downloaded" style="html=1;verticalAlign=bottom;endArrow=open;dashed=1;endSize=8;curved=0;rounded=0;exitX=0;exitY=1;exitDx=0;exitDy=-5;exitPerimeter=0;entryX=1;entryY=1;entryDx=0;entryDy=-5;entryPerimeter=0;" edge="1" parent="1">
          <mxGeometry relative="1" as="geometry">
            <mxPoint x="187" y="248" as="sourcePoint" />
            <mxPoint x="39" y="247" as="targetPoint" />
          </mxGeometry>
        </mxCell>
        <mxCell id="Zfnv8Gw2VdRxA6La8OuP-15" value="Edit" style="html=1;verticalAlign=bottom;endArrow=block;curved=0;rounded=0;exitX=1;exitY=0;exitDx=0;exitDy=5;exitPerimeter=0;" edge="1" parent="1">
          <mxGeometry width="80" relative="1" as="geometry">
            <mxPoint x="41" y="288" as="sourcePoint" />
            <mxPoint x="188" y="288" as="targetPoint" />
          </mxGeometry>
        </mxCell>
        <mxCell id="Zfnv8Gw2VdRxA6La8OuP-16" value="Edit Question" style="html=1;verticalAlign=bottom;endArrow=block;curved=0;rounded=0;exitX=1;exitY=0;exitDx=0;exitDy=5;exitPerimeter=0;" edge="1" parent="1">
          <mxGeometry width="80" relative="1" as="geometry">
            <mxPoint x="40" y="316.21000000000004" as="sourcePoint" />
            <mxPoint x="187" y="316.21000000000004" as="targetPoint" />
          </mxGeometry>
        </mxCell>
        <mxCell id="Zfnv8Gw2VdRxA6La8OuP-17" value="Add Question" style="html=1;verticalAlign=bottom;endArrow=block;curved=0;rounded=0;exitX=1;exitY=0;exitDx=0;exitDy=5;exitPerimeter=0;" edge="1" parent="1">
          <mxGeometry width="80" relative="1" as="geometry">
            <mxPoint x="40" y="335.21000000000004" as="sourcePoint" />
            <mxPoint x="187" y="335.21000000000004" as="targetPoint" />
          </mxGeometry>
        </mxCell>
        <mxCell id="Zfnv8Gw2VdRxA6La8OuP-18" value="opt" style="shape=umlFrame;whiteSpace=wrap;html=1;pointerEvents=0;" vertex="1" parent="1">
          <mxGeometry x="-35" y="295" width="454" height="122" as="geometry" />
        </mxCell>
        <mxCell id="Zfnv8Gw2VdRxA6La8OuP-19" value="Quiz Updated" style="html=1;verticalAlign=bottom;endArrow=open;dashed=1;endSize=8;curved=0;rounded=0;exitX=0;exitY=1;exitDx=0;exitDy=-5;exitPerimeter=0;entryX=1;entryY=1;entryDx=0;entryDy=-5;entryPerimeter=0;" edge="1" parent="1">
          <mxGeometry relative="1" as="geometry">
            <mxPoint x="188" y="397" as="sourcePoint" />
            <mxPoint x="40" y="396" as="targetPoint" />
          </mxGeometry>
        </mxCell>
        <mxCell id="Zfnv8Gw2VdRxA6La8OuP-21" value="Submit" style="html=1;verticalAlign=bottom;endArrow=block;curved=0;rounded=0;exitX=1;exitY=0;exitDx=0;exitDy=5;exitPerimeter=0;" edge="1" parent="1">
          <mxGeometry width="80" relative="1" as="geometry">
            <mxPoint x="40" y="373.00000000000006" as="sourcePoint" />
            <mxPoint x="187" y="373.00000000000006" as="targetPoint" />
          </mxGeometry>
        </mxCell>
        <mxCell id="Zfnv8Gw2VdRxA6La8OuP-22" value="Delete Question" style="html=1;verticalAlign=bottom;endArrow=block;curved=0;rounded=0;exitX=1;exitY=0;exitDx=0;exitDy=5;exitPerimeter=0;" edge="1" parent="1">
          <mxGeometry width="80" relative="1" as="geometry">
            <mxPoint x="40" y="354.00000000000006" as="sourcePoint" />
            <mxPoint x="187" y="354.00000000000006" as="targetPoint" />
          </mxGeometry>
        </mxCell>
        <mxCell id="Zfnv8Gw2VdRxA6La8OuP-23" value="Make Changes" style="html=1;verticalAlign=bottom;endArrow=block;curved=0;rounded=0;exitX=1;exitY=0;exitDx=0;exitDy=5;exitPerimeter=0;" edge="1" parent="1">
          <mxGeometry width="80" relative="1" as="geometry">
            <mxPoint x="199" y="373.00000000000006" as="sourcePoint" />
            <mxPoint x="346" y="373.00000000000006" as="targetPoint" />
          </mxGeometry>
        </mxCell>
        <mxCell id="Zfnv8Gw2VdRxA6La8OuP-25" value="Changed" style="html=1;verticalAlign=bottom;endArrow=open;dashed=1;endSize=8;curved=0;rounded=0;exitX=0;exitY=1;exitDx=0;exitDy=-5;exitPerimeter=0;entryX=1;entryY=1;entryDx=0;entryDy=-5;entryPerimeter=0;" edge="1" parent="1">
          <mxGeometry relative="1" as="geometry">
            <mxPoint x="346" y="397" as="sourcePoint" />
            <mxPoint x="198" y="396" as="targetPoint" />
          </mxGeometry>
        </mxCell>
        <mxCell id="Zfnv8Gw2VdRxA6La8OuP-27" value="Delete" style="html=1;verticalAlign=bottom;endArrow=block;curved=0;rounded=0;exitX=1;exitY=0;exitDx=0;exitDy=5;exitPerimeter=0;" edge="1" parent="1">
          <mxGeometry width="80" relative="1" as="geometry">
            <mxPoint x="40" y="443" as="sourcePoint" />
            <mxPoint x="187" y="443" as="targetPoint" />
          </mxGeometry>
        </mxCell>
        <mxCell id="Zfnv8Gw2VdRxA6La8OuP-29" value="Comfirm?" style="html=1;verticalAlign=bottom;endArrow=open;dashed=1;endSize=8;curved=0;rounded=0;exitX=0;exitY=1;exitDx=0;exitDy=-5;exitPerimeter=0;entryX=1;entryY=1;entryDx=0;entryDy=-5;entryPerimeter=0;" edge="1" parent="1">
          <mxGeometry relative="1" as="geometry">
            <mxPoint x="187" y="466" as="sourcePoint" />
            <mxPoint x="39" y="465" as="targetPoint" />
          </mxGeometry>
        </mxCell>
        <mxCell id="Zfnv8Gw2VdRxA6La8OuP-42" value="Displays Dashboard" style="html=1;verticalAlign=bottom;endArrow=open;dashed=1;endSize=8;curved=0;rounded=0;exitX=0;exitY=1;exitDx=0;exitDy=-5;exitPerimeter=0;entryX=1;entryY=1;entryDx=0;entryDy=-5;entryPerimeter=0;" edge="1" parent="1">
          <mxGeometry relative="1" as="geometry">
            <mxPoint x="188" y="559" as="sourcePoint" />
            <mxPoint x="40" y="558" as="targetPoint" />
            <mxPoint as="offset" />
          </mxGeometry>
        </mxCell>
      </root>
    </mxGraphModel>
  </diagram>
</mxfile>
